<?xml version="1.0" encoding="UTF-8"?> <svg xmlns="http://www.w3.org/2000/svg" width="765" height="80" viewBox="0 0 765 80" fill="none"><path d="M0.78793 32V7.68H24.7279C29.6426 7.68 33.2653 8.16133 35.5959 9.124C37.9266 10.0867 39.0919 11.7587 39.0919 14.14C39.0919 15.66 38.5853 16.8253 37.5719 17.636C36.5839 18.4467 35.1526 19.0167 33.2779 19.346C31.4286 19.65 29.1993 19.84 26.5899 19.916L26.8939 19.612C28.7939 19.612 30.5546 19.6627 32.1759 19.764C33.7973 19.8653 35.2159 20.0933 36.4319 20.448C37.6479 20.8027 38.5979 21.3473 39.2819 22.082C39.9659 22.8167 40.3079 23.83 40.3079 25.122C40.3079 26.6927 39.7506 27.9847 38.6359 28.998C37.5213 30.0113 35.9379 30.7713 33.8859 31.278C31.8339 31.7593 29.4146 32 26.6279 32H0.78793ZM10.2879 24.856H26.6279C27.9706 24.856 28.9333 24.7293 29.5159 24.476C30.1239 24.2227 30.4279 23.8173 30.4279 23.26C30.4279 22.88 30.2886 22.576 30.0099 22.348C29.7566 22.12 29.3513 21.9553 28.7939 21.854C28.2366 21.7273 27.5146 21.664 26.6279 21.664H10.2879V24.856ZM10.2879 18.016H25.0319C26.3746 18.016 27.3373 17.8893 27.9199 17.636C28.5279 17.3827 28.8319 16.9773 28.8319 16.42C28.8319 15.8373 28.5279 15.432 27.9199 15.204C27.3373 14.9507 26.3746 14.824 25.0319 14.824H10.2879V18.016ZM66.7046 32.76C61.1819 32.76 56.7359 32.2787 53.3666 31.316C49.9972 30.328 47.5399 28.884 45.9946 26.984C44.4746 25.0587 43.7146 22.6773 43.7146 19.84C43.7146 17.0027 44.4746 14.634 45.9946 12.734C47.5399 10.8087 49.9972 9.36467 53.3666 8.402C56.7359 7.414 61.1819 6.92 66.7046 6.92C72.2272 6.92 76.6732 7.414 80.0426 8.402C83.4119 9.36467 85.8566 10.8087 87.3766 12.734C88.9219 14.634 89.6946 17.0027 89.6946 19.84C89.6946 22.6773 88.9219 25.0587 87.3766 26.984C85.8566 28.884 83.4119 30.328 80.0426 31.316C76.6732 32.2787 72.2272 32.76 66.7046 32.76ZM66.7046 25.54C69.3139 25.54 71.5686 25.388 73.4686 25.084C75.3686 24.7547 76.8379 24.1847 77.8766 23.374C78.9152 22.538 79.4346 21.36 79.4346 19.84C79.4346 18.32 78.9152 17.1547 77.8766 16.344C76.8379 15.508 75.3686 14.938 73.4686 14.634C71.5686 14.3047 69.3139 14.14 66.7046 14.14C64.0952 14.14 61.8026 14.3047 59.8266 14.634C57.8759 14.938 56.3432 15.508 55.2286 16.344C54.1392 17.1547 53.5946 18.32 53.5946 19.84C53.5946 21.36 54.1392 22.538 55.2286 23.374C56.3432 24.1847 57.8759 24.7547 59.8266 25.084C61.8026 25.388 64.0952 25.54 66.7046 25.54ZM95.2075 7.68H104.708V32H95.2075V7.68ZM109.265 23.07H119.639C119.816 23.602 120.335 24.058 121.197 24.438C122.058 24.7927 123.211 25.0713 124.655 25.274C126.124 25.4513 127.821 25.54 129.747 25.54C131.647 25.54 133.141 25.4893 134.231 25.388C135.345 25.2613 136.131 25.0587 136.587 24.78C137.043 24.476 137.271 24.0707 137.271 23.564C137.271 23.0827 136.903 22.7153 136.169 22.462C135.434 22.1833 134.129 21.9933 132.255 21.892C130.38 21.7907 127.745 21.74 124.351 21.74C121.817 21.74 119.626 21.626 117.777 21.398C115.953 21.1447 114.445 20.7647 113.255 20.258C112.089 19.726 111.228 19.0673 110.671 18.282C110.113 17.4713 109.835 16.5087 109.835 15.394C109.835 13.4687 110.481 11.8853 111.773 10.644C113.09 9.37733 115.066 8.44 117.701 7.832C120.361 7.19867 123.679 6.882 127.657 6.882C133.483 6.882 137.929 7.73067 140.995 9.428C144.085 11.1 145.631 13.5193 145.631 16.686H135.789C135.662 15.85 134.877 15.2167 133.433 14.786C131.989 14.33 129.937 14.102 127.277 14.102C124.642 14.102 122.679 14.254 121.387 14.558C120.12 14.862 119.487 15.3813 119.487 16.116C119.487 16.496 119.664 16.8 120.019 17.028C120.373 17.256 120.981 17.446 121.843 17.598C122.729 17.7247 123.971 17.8133 125.567 17.864C127.163 17.9147 129.189 17.94 131.647 17.94C134.357 17.94 136.663 18.0793 138.563 18.358C140.463 18.6113 141.995 19.004 143.161 19.536C144.351 20.068 145.213 20.752 145.745 21.588C146.277 22.3987 146.543 23.3613 146.543 24.476C146.543 26.4013 145.935 27.972 144.719 29.188C143.503 30.404 141.577 31.3033 138.943 31.886C136.308 32.4687 132.863 32.76 128.607 32.76C126.2 32.76 123.983 32.6207 121.957 32.342C119.955 32.0633 118.169 31.658 116.599 31.126C115.028 30.5687 113.698 29.8973 112.609 29.112C111.519 28.3013 110.683 27.402 110.101 26.414C109.543 25.4007 109.265 24.286 109.265 23.07ZM149.38 23.07H159.754C159.931 23.602 160.45 24.058 161.312 24.438C162.173 24.7927 163.326 25.0713 164.77 25.274C166.239 25.4513 167.936 25.54 169.862 25.54C171.762 25.54 173.256 25.4893 174.346 25.388C175.46 25.2613 176.246 25.0587 176.702 24.78C177.158 24.476 177.386 24.0707 177.386 23.564C177.386 23.0827 177.018 22.7153 176.284 22.462C175.549 22.1833 174.244 21.9933 172.37 21.892C170.495 21.7907 167.86 21.74 164.466 21.74C161.932 21.74 159.741 21.626 157.892 21.398C156.068 21.1447 154.56 20.7647 153.37 20.258C152.204 19.726 151.343 19.0673 150.786 18.282C150.228 17.4713 149.95 16.5087 149.95 15.394C149.95 13.4687 150.596 11.8853 151.888 10.644C153.205 9.37733 155.181 8.44 157.816 7.832C160.476 7.19867 163.794 6.882 167.772 6.882C173.598 6.882 178.044 7.73067 181.11 9.428C184.2 11.1 185.746 13.5193 185.746 16.686H175.904C175.777 15.85 174.992 15.2167 173.548 14.786C172.104 14.33 170.052 14.102 167.392 14.102C164.757 14.102 162.794 14.254 161.502 14.558C160.235 14.862 159.602 15.3813 159.602 16.116C159.602 16.496 159.779 16.8 160.134 17.028C160.488 17.256 161.096 17.446 161.958 17.598C162.844 17.7247 164.086 17.8133 165.682 17.864C167.278 17.9147 169.304 17.94 171.762 17.94C174.472 17.94 176.778 18.0793 178.678 18.358C180.578 18.6113 182.11 19.004 183.276 19.536C184.466 20.068 185.328 20.752 185.86 21.588C186.392 22.3987 186.658 23.3613 186.658 24.476C186.658 26.4013 186.05 27.972 184.834 29.188C183.618 30.404 181.692 31.3033 179.058 31.886C176.423 32.4687 172.978 32.76 168.722 32.76C166.315 32.76 164.098 32.6207 162.072 32.342C160.07 32.0633 158.284 31.658 156.714 31.126C155.143 30.5687 153.813 29.8973 152.724 29.112C151.634 28.3013 150.798 27.402 150.216 26.414C149.658 25.4007 149.38 24.286 149.38 23.07ZM213.435 32.76C207.912 32.76 203.466 32.2787 200.097 31.316C196.728 30.328 194.27 28.884 192.725 26.984C191.205 25.0587 190.445 22.6773 190.445 19.84C190.445 17.0027 191.205 14.634 192.725 12.734C194.27 10.8087 196.728 9.36467 200.097 8.402C203.466 7.414 207.912 6.92 213.435 6.92C218.958 6.92 223.404 7.414 226.773 8.402C230.142 9.36467 232.587 10.8087 234.107 12.734C235.652 14.634 236.425 17.0027 236.425 19.84C236.425 22.6773 235.652 25.0587 234.107 26.984C232.587 28.884 230.142 30.328 226.773 31.316C223.404 32.2787 218.958 32.76 213.435 32.76ZM213.435 25.54C216.044 25.54 218.299 25.388 220.199 25.084C222.099 24.7547 223.568 24.1847 224.607 23.374C225.646 22.538 226.165 21.36 226.165 19.84C226.165 18.32 225.646 17.1547 224.607 16.344C223.568 15.508 222.099 14.938 220.199 14.634C218.299 14.3047 216.044 14.14 213.435 14.14C210.826 14.14 208.533 14.3047 206.557 14.634C204.606 14.938 203.074 15.508 201.959 16.344C200.87 17.1547 200.325 18.32 200.325 19.84C200.325 21.36 200.87 22.538 201.959 23.374C203.074 24.1847 204.606 24.7547 206.557 25.084C208.533 25.388 210.826 25.54 213.435 25.54ZM279.482 24.552L275.948 26.566V7.68H285.448V32H275.948L247.334 15.432L250.868 13.38V32H241.368V7.68H250.868L279.482 24.552ZM312.024 21.74V24.78H340.904V32H302.524V7.68H340.828V14.9H312.024V17.94H335.584V21.74H312.024ZM317.268 5.704L324.944 0.00399745H337.104L326.426 5.704H317.268ZM383.945 24.552L380.411 26.566V7.68H389.911V32H380.411L351.797 15.432L355.331 13.38V32H345.831V7.68H355.331L383.945 24.552ZM404.723 21.74V24.78H433.603V32H395.223V7.68H433.527V14.9H404.723V17.94H428.283V21.74H404.723ZM438.53 32V7.68H467.904C470.209 7.68 472.274 7.946 474.098 8.478C475.947 8.98467 477.404 9.846 478.468 11.062C479.557 12.278 480.102 13.9373 480.102 16.04C480.102 17.4333 479.849 18.586 479.342 19.498C478.835 20.41 478.139 21.1193 477.252 21.626C476.365 22.1327 475.352 22.5 474.212 22.728C473.072 22.956 471.881 23.0953 470.64 23.146L467.866 22.614C470.881 22.6393 473.199 22.766 474.82 22.994C476.467 23.222 477.607 23.64 478.24 24.248C478.899 24.8307 479.228 25.6793 479.228 26.794V32H469.728V27.934C469.728 27.174 469.576 26.604 469.272 26.224C468.993 25.8187 468.36 25.54 467.372 25.388C466.409 25.236 464.915 25.16 462.888 25.16H448.03V32H438.53ZM448.03 18.814H467.904C468.664 18.814 469.297 18.6873 469.804 18.434C470.336 18.1807 470.602 17.6993 470.602 16.99C470.602 16.3313 470.336 15.888 469.804 15.66C469.297 15.4067 468.664 15.28 467.904 15.28H448.03V18.814ZM507.516 32.76C504.223 32.76 501.195 32.5573 498.434 32.152C495.698 31.772 493.317 31.1133 491.29 30.176C489.289 29.2133 487.731 27.9087 486.616 26.262C485.527 24.6153 484.982 22.538 484.982 20.03C484.982 17.522 485.539 15.432 486.654 13.76C487.769 12.0627 489.365 10.72 491.442 9.732C493.545 8.71867 496.04 7.99667 498.928 7.566C501.841 7.13533 505.084 6.92 508.656 6.92C513.343 6.92 517.269 7.35067 520.436 8.212C523.628 9.07333 526.06 10.302 527.732 11.898C529.404 13.4687 530.303 15.3433 530.43 17.522H520.55C520.246 16.9647 519.689 16.4327 518.878 15.926C518.067 15.394 516.851 14.9633 515.23 14.634C513.609 14.3047 511.417 14.14 508.656 14.14C505.413 14.14 502.779 14.3427 500.752 14.748C498.725 15.128 497.243 15.7487 496.306 16.61C495.369 17.4713 494.9 18.6113 494.9 20.03C494.9 21.2713 495.381 22.2973 496.344 23.108C497.307 23.9187 498.852 24.5267 500.98 24.932C503.108 25.3373 505.92 25.54 509.416 25.54C511.873 25.54 514.001 25.4387 515.8 25.236C517.624 25.008 519.271 24.666 520.74 24.21C522.235 23.754 523.717 23.184 525.186 22.5L526.098 23.602C524.527 26.566 522.197 28.8333 519.106 30.404C516.015 31.9747 512.152 32.76 507.516 32.76ZM523.514 32C523.514 31.24 523.615 30.3787 523.818 29.416C524.021 28.4533 524.274 27.4527 524.578 26.414C524.907 25.35 525.224 24.3493 525.528 23.412H510.708V19.422H530.962V32H523.514ZM536.846 7.68H546.346V32H536.846V7.68ZM550.903 23.07H561.277C561.455 23.602 561.974 24.058 562.835 24.438C563.697 24.7927 564.849 25.0713 566.293 25.274C567.763 25.4513 569.46 25.54 571.385 25.54C573.285 25.54 574.78 25.4893 575.869 25.388C576.984 25.2613 577.769 25.0587 578.225 24.78C578.681 24.476 578.909 24.0707 578.909 23.564C578.909 23.0827 578.542 22.7153 577.807 22.462C577.073 22.1833 575.768 21.9933 573.893 21.892C572.019 21.7907 569.384 21.74 565.989 21.74C563.456 21.74 561.265 21.626 559.415 21.398C557.591 21.1447 556.084 20.7647 554.893 20.258C553.728 19.726 552.867 19.0673 552.309 18.282C551.752 17.4713 551.473 16.5087 551.473 15.394C551.473 13.4687 552.119 11.8853 553.411 10.644C554.729 9.37733 556.705 8.44 559.339 7.832C561.999 7.19867 565.318 6.882 569.295 6.882C575.122 6.882 579.568 7.73067 582.633 9.428C585.724 11.1 587.269 13.5193 587.269 16.686H577.427C577.301 15.85 576.515 15.2167 575.071 14.786C573.627 14.33 571.575 14.102 568.915 14.102C566.281 14.102 564.317 14.254 563.025 14.558C561.759 14.862 561.125 15.3813 561.125 16.116C561.125 16.496 561.303 16.8 561.657 17.028C562.012 17.256 562.62 17.446 563.481 17.598C564.368 17.7247 565.609 17.8133 567.205 17.864C568.801 17.9147 570.828 17.94 573.285 17.94C575.996 17.94 578.301 18.0793 580.201 18.358C582.101 18.6113 583.634 19.004 584.799 19.536C585.99 20.068 586.851 20.752 587.383 21.588C587.915 22.3987 588.181 23.3613 588.181 24.476C588.181 26.4013 587.573 27.972 586.357 29.188C585.141 30.404 583.216 31.3033 580.581 31.886C577.947 32.4687 574.501 32.76 570.245 32.76C567.839 32.76 565.622 32.6207 563.595 32.342C561.594 32.0633 559.808 31.658 558.237 31.126C556.667 30.5687 555.337 29.8973 554.247 29.112C553.158 28.3013 552.322 27.402 551.739 26.414C551.182 25.4007 550.903 24.286 550.903 23.07ZM597.43 28.314V22.614H623.422V28.314H597.43ZM588.918 32L605.22 7.68H615.784L632.238 32H621.788L607.69 10.226H613.352L599.368 32H588.918ZM673.398 24.552L669.864 26.566V7.68H679.364V32H669.864L641.25 15.432L644.784 13.38V32H635.284V7.68H644.784L673.398 24.552ZM683.157 7.68H722.677V14.9H683.157V7.68ZM698.167 14.406H707.667V32H698.167V14.406ZM735.962 21.74V24.78H764.842V32H726.462V7.68H764.766V14.9H735.962V17.94H759.522V21.74H735.962ZM116.121 66.6V59.38H132.613V78H123.493V66.6H116.121ZM155.614 78.57C151.586 78.57 148.23 78.2407 145.544 77.582C142.884 76.9233 140.883 75.872 139.54 74.428C138.223 72.984 137.564 71.084 137.564 68.728C137.564 66.372 138.223 64.472 139.54 63.028C140.883 61.5587 142.884 60.4947 145.544 59.836C148.23 59.152 151.586 58.81 155.614 58.81C159.617 58.81 162.936 59.152 165.57 59.836C168.23 60.4947 170.219 61.5587 171.536 63.028C172.854 64.472 173.512 66.372 173.512 68.728C173.512 71.084 172.854 72.984 171.536 74.428C170.219 75.872 168.23 76.9233 165.57 77.582C162.936 78.2407 159.617 78.57 155.614 78.57ZM155.614 72.87C157.489 72.87 159.06 72.718 160.326 72.414C161.593 72.0847 162.556 71.616 163.214 71.008C163.873 70.4 164.202 69.64 164.202 68.728C164.202 67.816 163.873 67.056 163.214 66.448C162.581 65.8147 161.631 65.3333 160.364 65.004C159.098 64.6747 157.527 64.51 155.652 64.51C153.752 64.51 152.144 64.6747 150.826 65.004C149.534 65.308 148.546 65.7767 147.862 66.41C147.204 67.0433 146.874 67.816 146.874 68.728C146.874 69.64 147.204 70.4 147.862 71.008C148.521 71.616 149.496 72.0847 150.788 72.414C152.106 72.718 153.714 72.87 155.614 72.87ZM196.138 78.57C192.11 78.57 188.753 78.2407 186.068 77.582C183.408 76.9233 181.406 75.872 180.064 74.428C178.746 72.984 178.088 71.084 178.088 68.728C178.088 66.372 178.746 64.472 180.064 63.028C181.406 61.5587 183.408 60.4947 186.068 59.836C188.753 59.152 192.11 58.81 196.138 58.81C200.14 58.81 203.459 59.152 206.094 59.836C208.754 60.4947 210.742 61.5587 212.06 63.028C213.377 64.472 214.036 66.372 214.036 68.728C214.036 71.084 213.377 72.984 212.06 74.428C210.742 75.872 208.754 76.9233 206.094 77.582C203.459 78.2407 200.14 78.57 196.138 78.57ZM196.138 72.87C198.012 72.87 199.583 72.718 200.85 72.414C202.116 72.0847 203.079 71.616 203.738 71.008C204.396 70.4 204.726 69.64 204.726 68.728C204.726 67.816 204.396 67.056 203.738 66.448C203.104 65.8147 202.154 65.3333 200.888 65.004C199.621 64.6747 198.05 64.51 196.176 64.51C194.276 64.51 192.667 64.6747 191.35 65.004C190.058 65.308 189.07 65.7767 188.386 66.41C187.727 67.0433 187.398 67.816 187.398 68.728C187.398 69.64 187.727 70.4 188.386 71.008C189.044 71.616 190.02 72.0847 191.312 72.414C192.629 72.718 194.238 72.87 196.138 72.87ZM228.377 65.65C226.072 65.65 224.108 65.4347 222.487 65.004C220.866 64.548 219.624 63.8387 218.763 62.876C217.902 61.9133 217.471 60.6467 217.471 59.076C217.471 56.7453 218.421 55.0607 220.321 54.022C222.246 52.9833 224.932 52.464 228.377 52.464C231.797 52.464 234.444 52.9833 236.319 54.022C238.219 55.0607 239.169 56.7453 239.169 59.076C239.169 60.6467 238.738 61.9133 237.877 62.876C237.041 63.8387 235.812 64.548 234.191 65.004C232.595 65.4347 230.657 65.65 228.377 65.65ZM228.377 61.85C229.872 61.85 230.999 61.622 231.759 61.166C232.544 60.6847 232.937 59.988 232.937 59.076C232.937 58.1893 232.544 57.5053 231.759 57.024C230.999 56.5173 229.872 56.264 228.377 56.264C226.857 56.264 225.692 56.5047 224.881 56.986C224.07 57.4673 223.665 58.164 223.665 59.076C223.665 59.988 224.058 60.6847 224.843 61.166C225.654 61.622 226.832 61.85 228.377 61.85ZM253.685 78.646C250.24 78.646 247.554 78.1393 245.629 77.126C243.729 76.1127 242.779 74.428 242.779 72.072C242.779 69.7413 243.729 68.0567 245.629 67.018C247.554 65.9793 250.24 65.46 253.685 65.46C257.13 65.46 259.79 65.9793 261.665 67.018C263.54 68.0567 264.477 69.7413 264.477 72.072C264.477 74.428 263.54 76.1127 261.665 77.126C259.79 78.1393 257.13 78.646 253.685 78.646ZM253.685 74.846C255.18 74.846 256.32 74.618 257.105 74.162C257.89 73.6807 258.283 72.984 258.283 72.072C258.283 71.1853 257.89 70.5013 257.105 70.02C256.32 69.5133 255.18 69.26 253.685 69.26C252.19 69.26 251.038 69.5007 250.227 69.982C249.416 70.4633 249.011 71.16 249.011 72.072C249.011 72.984 249.404 73.6807 250.189 74.162C250.974 74.618 252.14 74.846 253.685 74.846ZM247.225 51.932L249.277 53.072L234.761 79.292L232.785 78.076L247.225 51.932ZM318.15 70.552L314.616 72.566V53.68H324.116V78H314.616L286.002 61.432L289.536 59.38V78H280.036V53.68H289.536L318.15 70.552ZM335.661 74.314V68.614H361.653V74.314H335.661ZM327.149 78L343.451 53.68H354.015L370.469 78H360.019L345.921 56.226H351.583L337.599 78H327.149ZM367.059 53.68H406.579V60.9H367.059V53.68ZM382.069 60.406H391.569V78H382.069V60.406ZM444.526 64.13V53.68H454.026V65.84C454.026 67.9933 453.621 69.83 452.81 71.35C452.025 72.8447 450.923 74.086 449.504 75.074C448.085 76.0367 446.451 76.784 444.602 77.316C442.753 77.848 440.764 78.2153 438.636 78.418C436.533 78.646 434.393 78.76 432.214 78.76C429.909 78.76 427.679 78.646 425.526 78.418C423.373 78.2153 421.371 77.848 419.522 77.316C417.698 76.784 416.102 76.0367 414.734 75.074C413.366 74.086 412.289 72.8447 411.504 71.35C410.744 69.83 410.364 67.9933 410.364 65.84V53.68H419.864V64.13C419.864 66.1567 420.358 67.702 421.346 68.766C422.334 69.83 423.74 70.5647 425.564 70.97C427.413 71.35 429.63 71.54 432.214 71.54C434.722 71.54 436.901 71.35 438.75 70.97C440.599 70.5647 442.018 69.83 443.006 68.766C444.019 67.702 444.526 66.1567 444.526 64.13ZM459.348 78V53.68H488.722C491.028 53.68 493.092 53.946 494.916 54.478C496.766 54.9847 498.222 55.846 499.286 57.062C500.376 58.278 500.92 59.9373 500.92 62.04C500.92 63.4333 500.667 64.586 500.16 65.498C499.654 66.41 498.957 67.1193 498.07 67.626C497.184 68.1327 496.17 68.5 495.03 68.728C493.89 68.956 492.7 69.0953 491.458 69.146L488.684 68.614C491.699 68.6393 494.017 68.766 495.638 68.994C497.285 69.222 498.425 69.64 499.058 70.248C499.717 70.8307 500.046 71.6793 500.046 72.794V78H490.546V73.934C490.546 73.174 490.394 72.604 490.09 72.224C489.812 71.8187 489.178 71.54 488.19 71.388C487.228 71.236 485.733 71.16 483.706 71.16H468.848V78H459.348ZM468.848 64.814H488.722C489.482 64.814 490.116 64.6873 490.622 64.434C491.154 64.1807 491.42 63.6993 491.42 62.99C491.42 62.3313 491.154 61.888 490.622 61.66C490.116 61.4067 489.482 61.28 488.722 61.28H468.848V64.814ZM515.681 67.74V70.78H544.561V78H506.181V53.68H544.485V60.9H515.681V63.94H539.241V67.74H515.681ZM558.987 53.68V70.78H581.141V78H549.487V53.68H558.987ZM594.835 53.68V70.78H616.989V78H585.335V53.68H594.835ZM630.682 67.74V70.78H659.562V78H621.182V53.68H659.486V60.9H630.682V63.94H654.242V67.74H630.682Z" fill="#3B8E46"></path></svg> 